<?xml version="1.0" standalone="no"?>
<!DOCTYPE svg PUBLIC "-//W3C//DTD SVG 20010904//EN"
 "http://www.w3.org/TR/2001/REC-SVG-20010904/DTD/svg10.dtd">
<svg version="1.0" xmlns="http://www.w3.org/2000/svg"
 width="360.000000pt" height="360.000000pt" viewBox="0 0 360.000000 360.000000"
 preserveAspectRatio="xMidYMid meet">
<metadata>
Created by potrace 1.14, written by Peter Selinger 2001-2017
</metadata>
<g transform="translate(0.000000,360.000000) scale(0.100000,-0.100000)"
fill="#000000" stroke="none">
<path d="M2060 2948 c0 -3 35 -41 78 -84 42 -44 85 -95 95 -113 l19 -32 -56
31 c-66 37 -143 48 -200 28 l-38 -14 96 -47 c54 -26 125 -68 159 -94 33 -27
68 -53 75 -59 12 -9 8 -19 -24 -62 -21 -28 -42 -51 -45 -51 -3 -1 -9 22 -12
50 -8 63 -24 89 -74 120 -33 21 -50 24 -128 24 -49 -1 -99 -2 -110 -3 -11 0
-49 1 -84 4 -48 5 -76 1 -120 -14 -31 -11 -85 -22 -121 -24 -43 -3 -85 -13
-123 -31 l-58 -26 -46 35 c-80 61 -100 68 -193 68 -97 -1 -168 -25 -215 -74
l-28 -29 104 5 c57 3 124 1 149 -4 l45 -9 -42 -11 c-61 -18 -134 -71 -160
-117 -34 -61 -29 -66 35 -35 94 45 300 99 324 84 43 -27 -96 -82 -155 -62 -53
19 -129 -13 -201 -86 -33 -34 -90 -83 -126 -110 -74 -56 -155 -146 -187 -208
-12 -24 -32 -75 -45 -115 l-23 -71 -45 -7 c-25 -4 -60 -13 -77 -20 -41 -17
-118 -96 -144 -147 -22 -43 -43 -143 -34 -158 4 -6 26 16 49 47 41 56 143 150
152 141 2 -3 -5 -24 -17 -48 -31 -64 -35 -135 -11 -190 17 -38 21 -42 27 -25
26 74 79 195 86 195 5 0 9 -10 9 -23 0 -80 76 -222 166 -310 99 -98 265 -190
444 -246 184 -58 361 -84 582 -85 145 -1 157 -2 152 -18 -3 -12 11 -34 45 -68
27 -27 55 -50 60 -50 6 0 29 -13 53 -29 24 -16 59 -32 78 -36 19 -4 44 -15 55
-25 20 -18 54 -30 137 -49 108 -25 250 67 289 188 7 20 34 60 60 90 56 62 86
121 101 196 l10 52 57 11 c53 10 59 9 118 -19 56 -27 123 -86 123 -109 0 -5
-31 9 -68 30 -38 22 -83 43 -100 46 -18 4 -30 9 -28 13 2 3 -8 6 -22 7 -15 0
-34 2 -42 5 -8 2 -16 0 -18 -5 -1 -4 39 -22 90 -40 51 -18 123 -51 161 -73 37
-23 67 -37 67 -32 0 22 -33 86 -58 113 -15 16 -48 39 -74 51 -26 12 -45 24
-43 27 9 9 149 -2 203 -15 28 -8 52 -11 52 -7 0 20 -47 62 -98 87 -49 24 -69
28 -142 28 -79 0 -89 -2 -139 -33 -29 -18 -55 -31 -58 -28 -3 2 13 22 35 44
92 92 141 198 168 360 26 159 1 299 -72 400 -19 26 -41 61 -48 77 -19 40 -87
117 -119 134 -14 7 -28 24 -31 38 -8 31 -71 93 -121 118 -22 11 -68 46 -102
77 -38 34 -82 64 -111 74 l-48 17 -11 83 c-13 92 -36 137 -101 196 -53 48
-105 74 -165 83 -26 4 -47 5 -47 3z m125 -53 c59 -28 129 -98 151 -151 8 -20
18 -64 21 -98 l6 -63 61 -29 c33 -16 84 -51 111 -77 28 -27 67 -57 87 -68 84
-43 148 -124 148 -188 0 -46 -14 -74 -64 -126 -25 -26 -46 -53 -46 -59 0 -7
-24 11 -54 40 l-54 53 16 45 c21 56 36 58 98 11 25 -19 54 -35 64 -35 27 0 15
27 -16 34 -13 4 -34 20 -46 37 -13 17 -34 35 -47 40 -17 7 -21 14 -16 27 14
34 17 90 6 108 -9 16 -11 11 -11 -26 0 -25 -6 -55 -13 -66 -12 -22 -12 -22
-107 20 -111 49 -116 57 -126 174 -4 45 -9 80 -12 77 -3 -2 -14 23 -26 58 -25
74 -82 163 -152 235 -27 28 -46 52 -41 52 4 0 32 -11 62 -25z m21 -171 c52
-26 60 -35 86 -93 31 -67 32 -93 2 -42 -10 16 -21 28 -25 25 -4 -2 -12 4 -18
13 -6 10 -11 14 -11 9 0 -5 -8 0 -18 10 -9 10 -28 25 -42 33 -51 29 -139 71
-152 72 -7 1 1 4 17 8 43 10 95 -2 161 -35z m-927 -118 c24 -11 57 -33 72 -47
18 -17 32 -23 41 -18 32 21 139 49 198 53 75 5 113 -12 143 -64 19 -32 15 -57
-4 -30 -9 13 -10 12 -6 -1 5 -17 -21 -31 -145 -83 -34 -15 -36 -14 -99 28 -35
24 -70 51 -78 60 -18 21 -31 20 -31 -2 0 -15 -9 -18 -52 -19 -59 -2 -208 -42
-271 -74 l-42 -21 40 42 c45 48 145 100 191 100 17 0 48 -7 69 -16 55 -22 68
-10 14 15 -70 32 -144 45 -256 45 -57 1 -103 2 -103 3 0 2 19 12 43 24 86 42
195 44 276 5z m571 23 c40 -9 110 -60 110 -79 0 -9 -103 -38 -155 -44 -37 -5
-41 -3 -55 27 -8 17 -30 42 -48 54 l-32 21 32 11 c29 9 64 16 93 19 6 1 30 -3
55 -9z m248 -11 c23 -6 42 -14 42 -19 0 -9 -122 -49 -150 -49 -10 0 -22 9 -25
20 -4 11 -18 28 -33 38 l-26 17 34 5 c44 7 102 3 158 -12z m82 -76 c14 -53 12
-124 -5 -148 -15 -22 -61 -47 -106 -58 -23 -5 -28 0 -48 39 -12 25 -25 70 -28
100 l-6 55 30 0 c16 0 54 13 84 28 30 15 57 26 61 25 4 -2 12 -20 18 -41z
m170 -136 c5 -16 10 -55 10 -86 0 -52 -2 -58 -27 -69 -16 -7 -45 -24 -65 -38
-32 -21 -40 -24 -53 -13 -32 26 -34 45 -14 120 21 79 41 119 92 186 l32 42 7
-57 c5 -31 12 -69 18 -85z m-350 -43 c11 -14 20 -31 20 -39 0 -14 -43 -30
-107 -40 -24 -4 -43 -11 -43 -16 0 -14 100 1 128 18 22 15 26 12 23 -18 -1
-10 5 -34 15 -53 21 -45 10 -59 -54 -74 -41 -9 -44 -8 -53 16 -5 13 -9 28 -9
32 0 4 -13 20 -30 36 -24 23 -30 37 -30 72 0 42 -46 153 -70 168 -24 15 -6 25
43 25 28 0 70 9 92 19 l40 18 7 -69 c5 -46 15 -78 28 -95z m-581 98 c17 -16
51 -38 76 -50 65 -31 130 -94 170 -166 19 -34 35 -65 35 -68 0 -3 -13 -5 -29
-5 -15 1 -33 -2 -39 -6 -6 -3 -18 1 -26 10 -9 9 -44 30 -78 47 -70 36 -101 74
-122 151 -17 60 -27 116 -22 116 2 0 18 -13 35 -29z m379 -40 c18 -32 35 -80
38 -105 6 -40 4 -50 -17 -72 -22 -23 -73 -54 -90 -54 -4 0 -22 27 -40 60 -17
33 -52 78 -76 101 -25 22 -43 42 -41 44 2 1 26 10 53 19 28 9 68 27 90 40 22
13 42 25 45 25 3 1 20 -25 38 -58z m-415 -61 c5 -25 13 -49 18 -54 18 -19 8
-27 -23 -20 -35 7 -125 93 -104 99 6 2 25 8 41 14 48 16 59 10 68 -39z m-100
-33 c49 -45 54 -74 25 -137 -22 -49 -24 -51 -56 -46 -40 6 -117 43 -138 67
-14 16 -14 21 10 55 14 20 30 59 37 85 l12 48 38 -19 c20 -11 53 -34 72 -53z
m-134 51 c0 -7 -15 -40 -32 -73 l-32 -60 -56 0 -57 0 18 25 c25 35 69 74 110
99 40 24 50 26 49 9z m1007 -80 c-9 -24 -30 -58 -47 -77 -39 -41 -43 -37 -65
66 -3 18 2 22 33 28 21 3 49 12 63 20 14 7 27 12 29 9 2 -2 -3 -23 -13 -46z
m319 -2 c19 -15 18 -15 -22 -16 -23 0 -48 -3 -57 -6 -13 -5 -16 2 -16 35 l0
41 38 -19 c20 -11 46 -26 57 -35z m-1032 -68 c22 -16 26 -24 21 -46 -13 -53
-47 -122 -61 -122 -18 0 -73 25 -97 44 -19 16 -19 16 1 38 23 26 43 79 43 115
0 23 0 23 33 7 17 -9 44 -25 60 -36z m1130 25 c42 -6 33 -22 -13 -23 -34 -1
-183 -54 -234 -84 -42 -25 -97 -76 -80 -76 5 0 29 14 54 30 49 33 91 37 170
19 42 -9 136 -57 128 -64 -2 -2 -26 1 -53 6 -68 14 -233 13 -269 -1 -24 -9
-31 -8 -43 7 -13 17 -14 17 -26 -1 -7 -10 -36 -47 -64 -81 l-53 -62 -77 13
c-134 22 -143 25 -143 46 0 25 23 69 46 89 38 32 193 49 264 29 22 -6 36 -6
38 -1 7 21 65 87 96 109 66 47 156 63 259 45z m278 -65 c24 -31 69 -110 69
-123 0 -10 -19 -5 -34 11 -9 8 -16 13 -16 10 0 -3 -22 8 -50 25 -45 28 -49 33
-43 57 4 15 7 39 6 54 -2 27 -1 27 20 13 12 -8 34 -29 48 -47z m-1781 37 c0
-8 -61 -109 -87 -143 -20 -26 -28 -31 -39 -21 -15 12 -70 15 -103 4 -28 -9
-27 -3 14 60 46 72 95 104 163 104 28 1 52 -1 52 -4z m818 -35 c12 -18 22 -45
21 -59 0 -14 -3 -21 -5 -15 -3 7 -13 10 -22 9 -9 -2 -40 -6 -69 -9 -46 -4 -53
-2 -67 19 -15 23 -14 24 28 45 25 11 50 28 57 36 16 20 30 14 57 -26z m307
-30 c-9 -14 -64 -30 -70 -19 -4 5 4 27 16 49 l22 40 19 -31 c10 -17 16 -34 13
-39z m-1016 -20 c23 -11 41 -18 41 -14 0 4 7 1 15 -6 8 -6 19 -8 26 -4 31 18
-8 -64 -67 -144 -1 -2 -19 8 -40 22 -21 14 -68 33 -105 43 l-67 17 39 44 c21
25 44 63 51 85 l12 39 27 -30 c15 -17 46 -40 68 -52z m1381 64 c0 -22 -35 -74
-46 -70 -8 3 -36 8 -64 12 -28 4 -49 9 -46 11 7 8 129 52 144 52 6 1 12 -2 12
-5z m-1027 -25 c36 -18 77 -61 77 -80 0 -31 -11 -47 -29 -42 -19 5 -101 -32
-113 -50 -4 -7 -12 -6 -22 2 -20 16 -20 26 -3 43 14 13 29 55 41 111 7 30 16
33 49 16z m-712 -75 c-12 -21 -21 -43 -21 -48 0 -6 -16 -26 -35 -46 -19 -19
-48 -60 -65 -90 -23 -41 -29 -47 -24 -25 11 49 53 126 107 193 54 69 70 75 38
16z m905 29 c32 -43 6 -50 -68 -20 -34 14 -36 24 -5 30 45 9 60 7 73 -10z
m1090 -48 c32 -19 66 -35 75 -35 44 0 25 -54 -39 -112 -56 -51 -74 -54 -130
-25 -65 34 -71 47 -45 99 18 37 69 108 78 108 1 0 29 -16 61 -35z m-1509 -9
c11 -18 47 -36 73 -36 19 0 20 -4 16 -41 -2 -23 -9 -46 -15 -52 -6 -6 -11 -19
-11 -29 0 -23 -2 -23 -46 7 -25 17 -50 25 -81 25 l-44 0 36 47 c19 25 38 57
41 70 7 26 19 30 31 9z m584 -12 c-21 -17 -33 -38 -37 -64 -6 -34 -10 -38 -43
-44 -62 -10 -161 -7 -161 5 0 27 44 86 73 99 60 25 72 28 135 29 l64 1 -31
-26z m-946 -25 c5 -6 5 -9 -3 -9 -6 0 -9 -7 -5 -16 3 -8 -9 -55 -28 -104 l-33
-89 -85 -15 c-47 -9 -94 -16 -104 -16 -14 0 -16 -4 -7 -19 8 -16 4 -24 -23
-46 -17 -15 -26 -24 -19 -20 7 3 -7 -24 -31 -62 -24 -37 -55 -99 -70 -138
l-26 -70 0 70 c-1 57 4 81 28 132 26 54 37 65 80 88 28 14 51 30 51 35 0 14
-5 13 -63 -14 -63 -29 -171 -115 -221 -175 -43 -51 -48 -33 -12 44 46 100 134
165 242 179 l49 7 33 73 c40 88 111 173 150 178 34 5 84 -2 97 -13z m721 -8
c-9 -10 -21 -32 -25 -47 -7 -28 -9 -29 -86 -32 -43 -2 -82 1 -87 6 -13 13 68
59 134 76 75 21 85 20 64 -3z m-627 -11 c75 -22 141 -63 142 -88 4 -71 -17
-136 -41 -126 -51 21 -132 35 -182 32 -32 -2 -58 -4 -58 -4 0 1 16 37 35 81
19 44 35 90 35 103 0 12 1 22 3 22 1 0 31 -9 66 -20z m1191 -70 c0 -57 -7
-102 -25 -159 l-25 -80 -53 -19 c-28 -11 -71 -22 -93 -26 l-41 -6 13 59 c23
97 49 146 115 213 34 35 68 73 76 85 24 36 33 18 33 -67z m220 55 c0 -19 -5
-35 -11 -35 -5 0 -8 -4 -5 -9 4 -5 -5 -23 -19 -39 -23 -28 -28 -29 -60 -19
-19 6 -42 18 -51 28 -13 15 -14 21 0 52 8 20 11 39 8 43 -4 4 -2 4 5 0 6 -3
14 -2 18 4 3 5 31 10 61 10 l54 0 0 -35z m69 1 c19 -19 46 -40 62 -47 l29 -11
-26 -31 c-14 -16 -28 -43 -31 -59 -6 -32 -15 -32 -90 4 -49 22 -51 28 -23 53
20 18 36 74 31 108 -4 26 12 21 48 -17z m113 13 c14 -7 17 -16 12 -32 -3 -12
-8 -24 -11 -27 -6 -6 -63 26 -98 56 l-30 26 54 -7 c30 -3 63 -11 73 -16z m348
-44 c80 -158 38 -345 -110 -493 -63 -63 -208 -162 -238 -162 -11 0 -41 12 -67
27 -38 21 -63 27 -124 29 -42 1 -89 7 -104 13 -37 14 -120 14 -169 -1 -55 -16
-88 -68 -95 -145 -9 -100 -2 -97 -230 -97 -218 0 -318 13 -511 64 -294 77
-528 233 -617 410 -25 50 -35 80 -31 96 8 31 19 30 64 -6 51 -40 114 -66 197
-81 39 -6 97 -26 129 -43 55 -29 68 -31 176 -34 98 -3 120 -1 133 13 16 15 17
15 17 -6 0 -79 59 -158 137 -182 68 -21 169 -37 233 -37 30 -1 78 -1 105 -2
60 -1 152 14 181 30 74 40 153 192 154 295 0 15 7 42 16 58 13 27 19 30 47 24
18 -4 43 -18 56 -32 13 -14 45 -34 70 -45 25 -11 62 -27 81 -36 19 -9 62 -18
96 -20 l61 -4 36 43 c19 24 38 56 42 71 4 14 20 36 35 48 16 12 36 40 45 62 9
22 40 64 70 92 36 34 57 62 61 84 4 17 10 32 14 32 4 0 22 -29 40 -65z m-707
35 c-3 -11 -9 -17 -14 -15 -10 7 -1 35 11 35 5 0 6 -9 3 -20z m-848 -56 c-9
-61 -14 -74 -31 -74 -10 0 -9 10 6 43 11 23 20 50 20 60 0 9 3 17 6 17 4 0 3
-21 -1 -46z m145 -29 c30 0 58 -4 62 -10 10 -13 8 -131 -1 -165 -7 -23 -11
-25 -64 -23 -31 1 -65 7 -76 13 -24 13 -51 95 -51 158 l0 44 38 -8 c20 -5 62
-9 92 -9z m255 -24 c-21 -61 -28 -124 -17 -164 8 -30 7 -43 -9 -74 -10 -20
-19 -57 -19 -81 l0 -44 -42 7 c-80 14 -87 19 -78 60 5 20 5 49 0 65 -8 28 -8
28 30 23 42 -6 110 4 110 15 0 4 -35 7 -77 7 -64 0 -77 3 -74 15 19 73 21 126
6 163 l-16 40 43 -6 c24 -3 63 -1 88 3 74 12 71 14 55 -29z m157 17 l87 -11
-24 -31 c-22 -29 -58 -126 -71 -190 -3 -17 -8 -26 -12 -20 -4 5 -14 9 -22 9
-24 -2 -84 24 -97 42 -16 21 -17 106 -1 173 10 45 14 51 32 45 12 -3 60 -11
108 -17z m668 14 c0 -14 77 -53 109 -55 26 -2 30 -5 25 -22 -8 -27 -53 -85
-70 -92 -18 -7 -90 20 -123 46 -23 18 -24 21 -11 52 16 39 35 61 44 52 3 -4 6
1 6 10 0 10 5 17 10 17 6 0 10 -4 10 -8z m-1345 -23 c52 -24 56 -43 28 -110
-16 -35 -21 -40 -43 -34 -14 3 -44 8 -67 12 -24 3 -43 6 -43 7 0 0 7 19 15 41
8 22 14 55 15 73 0 27 4 32 25 32 14 0 45 -9 70 -21z m1042 -25 c22 -6 25 -11
20 -41 -9 -51 -46 -94 -77 -87 -28 6 -50 22 -50 35 0 5 6 6 13 3 14 -5 37 53
37 91 0 12 5 15 16 11 9 -3 27 -9 41 -12z m126 -96 c-15 -16 -23 -28 -19 -28
4 0 1 -9 -7 -21 -8 -11 -13 -29 -10 -40 8 -30 -37 -20 -86 19 l-24 19 26 35
c15 19 29 48 33 64 l6 29 53 -25 54 -25 -26 -27z m-1059 20 c4 -29 3 -67 -1
-85 l-8 -32 -38 29 c-34 25 -36 29 -22 43 8 9 15 25 15 36 0 11 4 22 10 26 5
3 7 12 3 20 -3 10 1 15 15 15 17 0 21 -8 26 -52z m-335 -6 c65 -17 94 -42 49
-42 -16 0 -19 -3 -10 -9 18 -11 -94 -114 -117 -106 -9 2 -40 9 -69 15 -85 16
-222 85 -222 112 0 5 4 7 10 3 8 -5 73 9 165 34 48 14 125 11 194 -7z m1544
-45 c21 -9 47 -17 57 -17 27 0 25 -10 -8 -56 -43 -59 -57 -67 -99 -59 -71 13
-113 35 -113 60 0 42 23 87 53 106 30 18 32 18 52 1 11 -10 37 -26 58 -35z
m-1323 -28 c38 -17 79 -42 91 -55 21 -22 21 -24 5 -49 -24 -37 -59 -47 -161
-48 -73 -1 -100 4 -142 22 -29 13 -53 26 -53 30 1 3 15 15 33 26 18 11 46 42
62 68 28 43 33 47 63 43 18 -3 64 -19 102 -37z m202 -15 c21 -11 47 -15 79
-12 l48 5 6 -41 c3 -23 3 -50 1 -61 -3 -11 -5 -24 -5 -29 -1 -12 -122 -1 -149
13 -19 10 -22 20 -22 76 0 36 2 65 5 65 4 0 20 -7 37 -16z m411 -61 c43 -13
56 -22 51 -33 -3 -8 -10 -36 -16 -62 -13 -53 -26 -58 -100 -38 -32 9 -38 16
-44 47 -5 25 -3 38 5 41 6 2 9 7 6 12 -9 14 14 62 28 56 6 -3 38 -13 70 -23z
m264 -30 c-6 -61 -49 -157 -95 -211 -20 -25 -38 -35 -69 -39 l-41 -5 -7 56
c-8 58 -1 128 16 182 9 29 14 32 67 38 31 4 71 13 87 21 46 21 48 19 42 -42z
m-1487 -17 c78 -165 300 -322 573 -406 204 -63 489 -97 680 -81 l77 7 0 -34
c0 -19 -8 -46 -19 -60 -10 -15 -22 -37 -25 -49 -7 -22 -11 -23 -134 -23 -70 0
-172 5 -227 10 -513 50 -912 292 -967 588 -10 52 -6 112 7 112 2 0 18 -29 35
-64z m2295 -73 c-32 -96 -63 -149 -124 -217 l-47 -52 -62 26 -62 26 68 44 c37
24 89 65 116 90 50 46 125 149 127 172 0 9 2 9 5 1 3 -6 -7 -47 -21 -90z
m-1388 9 c23 1 46 -1 49 -5 4 -4 9 -29 12 -57 9 -97 -35 -122 -134 -76 -54 25
-64 44 -64 121 0 43 5 46 53 29 23 -8 61 -14 84 -12z m186 -57 c-4 -16 -6 -49
-5 -72 3 -49 -14 -59 -79 -48 -33 6 -39 10 -33 23 4 10 10 43 12 74 l4 57 54
-2 54 -2 -7 -30z m123 5 c30 0 31 -2 37 -47 3 -27 9 -56 12 -65 5 -13 -2 -18
-40 -24 -99 -14 -139 25 -116 113 11 41 12 41 44 32 17 -5 46 -9 63 -9z m422
-116 l30 -6 -33 -34 c-19 -19 -37 -34 -40 -34 -3 0 -36 14 -73 31 -56 27 -64
33 -47 40 24 9 121 11 163 3z m193 -25 c57 -20 64 -31 30 -45 -16 -7 -39 -26
-51 -42 l-22 -30 -56 18 c-73 23 -112 44 -104 56 4 5 20 20 36 32 33 25 109
30 167 11z m-345 -24 c20 -14 54 -30 74 -36 35 -11 37 -13 30 -43 -11 -46 -51
-124 -68 -131 -8 -3 -37 7 -66 23 l-51 27 1 60 c1 51 24 125 39 125 2 0 21
-11 41 -25z m551 -45 c29 -10 66 -28 82 -39 l30 -22 53 33 c49 31 59 33 138
33 88 0 127 -12 180 -56 20 -16 21 -19 5 -13 -41 16 -252 16 -307 0 -28 -8
-55 -13 -60 -10 -4 3 -20 -3 -36 -14 -15 -11 -50 -32 -79 -47 l-52 -27 -65 37
c-93 52 -110 67 -102 92 4 12 21 31 39 42 37 23 87 20 174 -9z m-309 -50 l52
-12 -35 -41 c-20 -23 -43 -63 -53 -90 -19 -54 -24 -54 -109 -17 -38 17 -58 40
-35 40 13 0 55 86 57 117 4 54 3 53 38 33 18 -11 56 -24 85 -30z m95 -38 c9
-10 44 -31 77 -47 57 -27 76 -45 46 -45 -12 0 -74 -62 -134 -135 -22 -27 -23
-27 -41 -9 -10 11 -30 28 -45 38 -40 29 -30 84 31 170 36 51 43 54 66 28z
m298 -88 c-22 -61 -51 -108 -101 -163 -28 -30 -37 -33 -81 -32 -27 0 -58 5
-69 11 -10 5 -26 7 -34 4 -26 -10 -18 11 22 63 51 64 100 106 143 122 77 29
110 45 121 59 21 24 20 -3 -1 -64z m-639 -5 c34 -9 53 -29 28 -29 -5 0 -7 -6
-4 -14 8 -20 -23 -76 -42 -76 -16 0 -78 31 -107 54 -20 16 -19 31 10 98 l16
38 31 -30 c16 -17 47 -35 68 -41z m99 -49 c24 -11 56 -20 72 -20 33 0 35 -12
3 -29 -23 -13 -56 -69 -56 -97 0 -13 -4 -12 -32 2 -18 9 -43 25 -55 36 l-22
20 21 28 c11 16 21 40 21 54 0 14 1 26 2 26 2 0 22 -9 46 -20z m-228 -44 c18
-19 88 -56 104 -56 25 0 15 -76 -13 -109 -14 -17 -31 -31 -37 -31 -16 1 -86
54 -104 80 -13 18 -12 27 2 75 16 58 24 64 48 41z m428 -86 c5 0 -7 -22 -27
-50 -20 -27 -39 -50 -42 -50 -4 0 -25 10 -47 23 -54 30 -58 63 -15 117 l32 40
45 -40 c25 -22 50 -40 54 -40z m-212 -82 c-11 -14 -22 -40 -25 -57 -8 -36 -14
-37 -73 -11 l-43 20 31 35 c20 23 31 46 31 65 l0 30 49 -27 49 -28 -19 -27z
m285 57 c27 -8 66 -15 88 -15 21 0 38 -2 38 -5 0 -3 -9 -23 -20 -44 -39 -78
-148 -161 -211 -161 -21 0 -41 5 -44 10 -11 17 23 112 60 173 20 31 37 57 38
57 1 0 24 -7 51 -15z m-206 -70 c20 -14 43 -25 50 -25 10 0 12 -6 7 -17 -4
-10 -9 -35 -12 -57 l-6 -38 -40 5 c-57 8 -93 37 -89 73 3 25 37 84 48 84 3 0
22 -11 42 -25z"/>
</g>
</svg>
